<svg xmlns="http://www.w3.org/2000/svg" viewBox="0 0 176 37" width="185" height="39" xml:space="preserve"><path d="m49.5 14.9-.3.3c-.1.1-.2.1-.4.1-.1 0-.3 0-.4-.1-.2-.1-.3-.2-.5-.3-.2-.1-.4-.2-.7-.3-.3-.1-.6-.1-.8-.1-.4 0-.9.1-1.2.3-.3.2-.4.6-.4.9 0 .2.1.5.2.6.2.2.4.3.6.4l.9.3c.3.1.7.2 1 .3.4.1.7.3 1 .4l.9.6c.3.3.5.6.6.9.2.4.3.9.2 1.3 0 .6-.1 1.1-.3 1.6-.2.5-.5.9-.9 1.3s-.9.7-1.4.9c-.6.2-1.3.3-1.9.3-.4 0-.8 0-1.2-.1l-1.2-.3c-.4-.1-.7-.3-1.1-.5-.3-.2-.6-.4-.9-.7l.9-1.4c.1-.1.2-.2.3-.2.1-.1.2-.1.4-.1s.4.1.5.2c.2.1.4.2.6.4.2.1.5.3.8.4.3.1.7.2 1 .2.4 0 .9-.1 1.2-.3.3-.3.5-.7.4-1.1 0-.3-.1-.5-.2-.7-.2-.2-.4-.3-.6-.5l-.9-.3c-.3-.1-.7-.2-1-.3-.4-.1-.7-.3-1-.4l-.9-.6c-.3-.3-.5-.6-.6-1-.2-.5-.3-1-.2-1.5 0-.5.1-.9.3-1.4.2-.5.5-.9.8-1.2.4-.4.8-.6 1.3-.8.6-.2 1.2-.3 1.8-.3.4 0 .8 0 1.1.1.4.1.7.1 1 .3.3.1.6.3.9.4.3.2.5.3.8.6l-.5 1.4zM57.9 24.9c-.2 0-.4 0-.6-.1-.1-.1-.3-.2-.3-.4l-.2-.5c-.2.2-.4.3-.6.5-.2.1-.4.3-.6.4-.2.1-.4.2-.7.2-.3 0-.5.1-.8.1-.4 0-.7 0-1.1-.2-.3-.1-.6-.2-.8-.5-.2-.2-.4-.5-.5-.7-.1-.3-.2-.7-.2-1 0-.3.1-.7.2-.9.2-.4.5-.7.8-.9.5-.3 1-.5 1.6-.7.8-.2 1.6-.3 2.5-.3v-.4c0-.4-.1-.8-.3-1.1-.2-.2-.6-.4-.9-.3-.3 0-.5 0-.8.1-.2.1-.4.1-.5.2-.2.1-.3.2-.4.2-.2.1-.3.1-.5.1s-.3 0-.5-.1l-.3-.3-.5-.8c.5-.5 1.1-.8 1.7-1 .7-.2 1.4-.3 2-.3.5 0 1 .1 1.4.3.4.2.8.4 1.1.7.3.3.5.7.7 1.1.2.4.2.9.2 1.4v5.4h-1.1zm-3-1.6c.3 0 .6-.1.9-.2.3-.1.5-.3.8-.6v-1.2c-.4 0-.9 0-1.3.1-.3 0-.5.1-.8.3-.2.1-.3.2-.4.3-.1.2-.1.4-.1.5 0 .2.1.5.2.6.2.2.5.2.7.2zM65.5 24.9h-2.4l-3.4-8.6h2.2c.2 0 .3 0 .5.1l.3.3 1.2 3.9.3.9c.1.3.2.6.2.9.1-.3.1-.6.2-.9l.3-.9 1.3-3.9c0-.1.1-.2.3-.3.1-.1.3-.1.4-.1H69l-3.5 8.6zM73.4 16.1c.5 0 1.1.1 1.6.3.5.2.9.4 1.2.8.4.4.6.8.8 1.2.2.5.3 1.1.3 1.7v.5c0 .1 0 .2-.1.3 0 .1-.1.1-.2.2h-5.3c0 .6.3 1.1.7 1.6.4.3.9.5 1.4.5.3 0 .5 0 .8-.1.2-.1.4-.1.6-.2.2-.1.3-.2.5-.2.1-.1.3-.1.4-.1.2 0 .4.1.5.2l.8.9c-.2.3-.5.5-.9.7-.3.2-.6.3-1 .4-.3.1-.6.2-1 .2-.3 0-.6.1-.9.1-.6 0-1.2-.1-1.7-.3-.5-.2-1-.5-1.4-.9-.4-.4-.7-.9-.9-1.5-.2-.6-.4-1.3-.3-2 0-.6.1-1.1.3-1.6.4-1 1.2-1.9 2.2-2.3.4-.3 1-.4 1.6-.4zm0 1.8c-.4 0-.8.1-1.2.4-.3.3-.5.8-.6 1.2H75c0-.2 0-.4-.1-.6-.1-.2-.1-.4-.3-.5-.1-.2-.3-.3-.5-.4-.2 0-.4-.1-.7-.1zM85.3 25c-.4 0-.7-.1-1.1-.2-.6-.2-1.1-.7-1.3-1.3-.1-.3-.2-.7-.2-1V18H82c-.3 0-.5-.2-.5-.4v-1.1l1.4-.3.5-2.1c.1-.3.3-.4.6-.4h1.4v2.5h2.1V18h-2.1v4.3c0 .2 0 .4.1.5.1.1.3.2.4.2h.2c.1 0 .1 0 .2-.1 0 0 .1 0 .1-.1h.1c.1 0 .1 0 .2.1.1 0 .1.1.1.2l.8 1.2c-.3.3-.7.4-1.1.6-.4.1-.8.1-1.2.1zM88.9 24.9V12.4h2.6V17c.3-.3.6-.5 1-.6.4-.2.9-.3 1.3-.2.4 0 .9.1 1.3.2.4.2.7.4.9.7.3.3.5.7.6 1 .1.4.2.9.2 1.3v5.5h-2.6v-5.5c0-.4-.1-.7-.3-1-.2-.2-.5-.4-.9-.4-.3 0-.6.1-.8.2-.3.1-.5.3-.7.5v6.2h-2.6zM102.3 16.1c.5 0 1.1.1 1.6.3.5.2.9.4 1.2.8.4.4.6.8.8 1.2.2.5.3 1.1.3 1.7v.5c0 .1 0 .2-.1.3 0 .1-.1.1-.2.2h-5.3c0 .6.3 1.1.7 1.6.4.3.9.5 1.4.5.3 0 .5 0 .8-.1.2-.1.4-.1.6-.2.2-.1.3-.2.5-.2.1-.1.3-.1.4-.1.2 0 .4.1.5.2l.8.9c-.2.3-.5.5-.9.7-.3.2-.6.3-1 .4-.3.1-.6.2-1 .2-.3 0-.6.1-.9.1-.6 0-1.2-.1-1.7-.3-.5-.2-1-.5-1.4-.9-.4-.4-.7-.9-.9-1.5-.2-.6-.4-1.3-.3-2 0-.6.1-1.1.3-1.6.4-1 1.2-1.9 2.2-2.3.4-.3 1-.4 1.6-.4zm.1 1.8c-.4 0-.8.1-1.2.4-.3.3-.5.8-.6 1.2h3.2c0-.2 0-.4-.1-.6 0-.2-.1-.4-.3-.5-.1-.2-.3-.3-.5-.4 0-.1-.3-.1-.5-.1zM119.7 21.7h.2c.1 0 .1.1.2.1l1.2 1.2c-.5.7-1.1 1.2-1.9 1.5-.9.4-1.8.5-2.7.5-.9 0-1.7-.2-2.6-.5-.7-.3-1.4-.8-1.9-1.3-.5-.6-.9-1.3-1.2-2-.3-.8-.4-1.7-.4-2.5 0-.9.2-1.8.5-2.6s.8-1.4 1.3-2c.6-.6 1.3-1 2.1-1.3.8-.3 1.7-.5 2.7-.5.4 0 .9 0 1.3.1l1.2.3c.3.1.7.3 1 .5.3.2.6.4.8.7l-1 1.3c-.1.1-.1.2-.2.2-.1.1-.2.1-.4.1-.1 0-.2 0-.3-.1-.1-.1-.2-.1-.3-.2-.1-.1-.2-.1-.3-.2-.1-.1-.3-.2-.4-.2-.2-.1-.4-.1-.6-.2-.3 0-.5-.1-.8-.1-.5 0-1 .1-1.4.3-.4.2-.8.5-1.1.8-.3.4-.6.8-.7 1.3-.2.5-.3 1.1-.3 1.7 0 .6.1 1.2.3 1.7.2.5.4.9.7 1.3.3.3.6.6 1.1.8.4.2.8.3 1.3.3h.7c.2 0 .4-.1.6-.1.2-.1.4-.1.5-.2.2-.1.4-.2.5-.4.1-.1.1-.1.2-.1-.1-.2 0-.2.1-.2zM122.6 24.9V12.4h2.6V17c.3-.3.6-.5 1-.6.4-.2.9-.3 1.3-.2.4 0 .9.1 1.3.2.4.2.7.4.9.7.3.3.5.7.6 1 .1.4.2.9.2 1.3v5.5h-2.6v-5.5c0-.4-.1-.7-.3-1-.2-.2-.5-.4-.9-.4-.3 0-.6.1-.8.2-.3.1-.5.3-.7.5v6.2h-2.6zM135.4 13.9c0 .2 0 .4-.1.6-.1.2-.2.3-.3.5-.1.1-.3.2-.5.3-.2.1-.4.1-.6.1-.2 0-.4 0-.6-.1-.2-.1-.3-.2-.5-.3-.1-.1-.3-.3-.3-.5-.1-.2-.1-.4-.1-.6 0-.2 0-.4.1-.6.1-.2.2-.3.3-.5.1-.1.3-.2.5-.3.2-.1.4-.1.6-.1.2 0 .4 0 .6.1.4.1.7.4.8.8 0 .2.1.4.1.6zm-.3 2.4v8.6h-2.6v-8.6h2.6zM140 12.4v12.5h-2.6V12.4h2.6zM148.2 24.9c-.1 0-.3 0-.4-.1-.1-.1-.2-.2-.2-.3l-.2-.7-.5.5c-.2.2-.4.3-.6.4-.2.1-.5.2-.7.3-.3.1-.5.1-.8.1-.4 0-.9-.1-1.3-.3-.4-.2-.7-.5-1-.9-.3-.4-.5-.9-.7-1.4-.2-.6-.2-1.2-.2-1.9 0-.6.1-1.2.3-1.8.2-.5.4-1 .8-1.4.3-.4.7-.7 1.2-.9.5-.2 1-.3 1.5-.3.4 0 .8.1 1.1.2.3.1.6.3.8.5v-4.4h2.6V25h-1.7zm-2.6-1.8c.2 0 .3 0 .5-.1.1 0 .3-.1.4-.2.1-.1.3-.2.4-.3l.3-.3v-3.7c-.2-.2-.4-.4-.6-.5-.2-.1-.5-.1-.7-.1-.2 0-.5 0-.7.1-.2.1-.4.3-.5.5-.2.2-.3.5-.3.8-.1.4-.1.8-.1 1.2 0 .4 0 .8.1 1.2 0 .3.1.5.3.8.1.2.3.3.4.4.1.1.3.2.5.2zM151.9 24.9v-8.6h1.8c.1 0 .2.1.2.1.1 0 .1.1.1.2s.1.2.1.3l.1.8c.3-.4.6-.8 1.1-1.2.4-.3.8-.4 1.3-.4.3 0 .7.1 1 .3l-.3 1.9c0 .1-.1.2-.1.2-.1.1-.2.1-.3.1h-.8c-.7 0-1.2.4-1.6 1.1V25h-2.6zM162.3 16.1c.5 0 1.1.1 1.6.3.5.2.9.4 1.2.8.4.4.6.8.8 1.2.2.5.3 1.1.3 1.7v.5c0 .1 0 .2-.1.3 0 .1-.1.1-.2.2h-5.3c0 .6.3 1.1.7 1.6.4.3.9.5 1.4.5.3 0 .5 0 .8-.1.2-.1.4-.1.6-.2.2-.1.3-.2.5-.2.1-.1.3-.1.4-.1.2 0 .4.1.5.2l.8.9c-.2.3-.5.5-.9.7-.3.2-.6.3-1 .4-.3.1-.6.2-1 .2-.3 0-.6.1-.9.1-.6 0-1.2-.1-1.7-.3-.5-.2-1-.5-1.4-.9-.4-.4-.7-.9-.9-1.5-.2-.6-.4-1.3-.3-2 0-.6.1-1.1.3-1.6.4-1 1.2-1.9 2.2-2.3.4-.3 1-.4 1.6-.4zm.1 1.8c-.4 0-.8.1-1.2.4-.3.3-.5.8-.6 1.2h3.2c0-.2 0-.4-.1-.6-.1-.2-.1-.4-.3-.5-.1-.2-.3-.3-.5-.4 0 0-.3-.1-.5-.1zM167.9 24.9v-8.6h1.6c.1 0 .3 0 .4.1.1.1.2.2.2.3l.2.5c.2-.2.3-.3.5-.4l.6-.3c.2-.1.4-.2.7-.2.3-.1.5-.1.8-.1.4 0 .9.1 1.3.2.4.2.7.4.9.7.3.3.5.7.6 1 .1.4.2.9.2 1.3v5.5h-2.6v-5.5c0-.4-.1-.7-.3-1-.2-.2-.5-.4-.9-.4-.3 0-.6.1-.8.2-.3.1-.5.3-.7.5v6.2h-2.7z"/><g><path d="M32.5 9.1C34 7.3 34.7 6.4 34.6 6c-.2-.4-.6-.7-1-.8-.6-.3-1.4-.4-1.8-.2l-.9.9-.5.5c-.3-.3-.6-.6-1-.9-2.3-2-5.2-3.4-8.3-3.8C19.9.4 18.2-.2 16.6 0c-1.4.2-2.6 1.1-3.3 2.3-3.2 1-6 2.8-8.2 5.2-.5-.1-1.6.1-2.2.5-.4.1-.6.4-.7.7 0 .2 0 .5.9 1.5C.9 13.7-.1 17.9.4 22c.5 4.1 2.4 7.9 5.6 10.6 1 1 2.2 1.8 3.5 2.4 6 2.9 13.1 2.7 18.9-.7.5-.3.6-.9.4-1.4l-.1-.2c-1-2.1-3.8-8.6-2.2-14.5.7-2.5 2.6-5.1 4.3-7.2 1.8 2.8 2.7 6 2.6 9.3-.1 3-1.1 5.9-2.9 8.3-.1.1-.1.2-.1.4l.2.4c.1.2.3.3.5.2l.1-.1c4.7-5.9 5.3-14.2 1.3-20.4zm-21 14c-.6 3.2-.8 6.6-.4 9.9-1.2-.6-2.4-1.4-3.4-2.3-2.8-2.4-4.7-5.8-5.4-9.5-.6-3.4-.1-7 1.6-10.1.6.7 1.4 1.4 2.2 2.2 2 2 4.2 4.2 5.3 5.7.6 1 .4 2.2.1 4.1M28.7 8.4c-3.6 3.7-7.1 5.6-10.2 5.9-2.4.2-4.9-.5-7.6-2.1C9.2 11 7.6 9.8 6.1 8.3L6 8.2c1.8-1.9 4.1-3.3 6.6-4.1-.3 1-.3 2.1-.2 3.1.3 1.8 1.2 3.5 2.7 4.6 2 1.6 5 1.2 6.6-.8.1-.1.1-.2.2-.3 1-1.5 1.5-3.4 1.1-5.2-.1-.3-.1-.7-.2-1 1.8.7 3.5 1.7 5 3l.9.9z" fill="#da291c"/></g></svg>