<?xml version="1.0" encoding="UTF-8" standalone="no"?>
<svg width="22px" height="22px" viewBox="0 0 22 22" version="1.1" xmlns="http://www.w3.org/2000/svg" xmlns:xlink="http://www.w3.org/1999/xlink">
    <!-- Generator: sketchtool 3.7 (28169) - http://www.bohemiancoding.com/sketch -->
    <title>892EB786-5A04-4983-B3C8-764B25ACB4CF</title>
    <desc>Created with sketchtool.</desc>
    <defs></defs>
    <g id="Page-1" stroke="none" stroke-width="1" fill="none" fill-rule="evenodd">
        <g id="PT0010-Header-Standard-992-Menu_Level2" transform="translate(-832.000000, -27.000000)">
            <rect id="page-level" fill="#E3E3E3" x="0" y="0" width="1024" height="1024"></rect>
            <g id="Global-navigation" transform="translate(-1.000000, 0.000000)">
                <g id="BG" transform="translate(1.000000, 0.000000)" fill="#FFFFFF">
                    <rect id="bg" x="0" y="0" width="1024" height="449"></rect>
                </g>
                <g id="top">
                    <rect id="top-bg" fill="#FFFFFF" x="1" y="0" width="1024" height="78"></rect>
                    <path d="M837.649842,41.5870094 C836.323449,40.2606167 835.592656,38.4961737 835.592656,36.6204883 C835.592656,34.7448029 836.323449,32.9803599 837.649842,31.6539672 C838.976235,30.3275744 840.740146,29.596781 842.616363,29.596781 C844.492049,29.596781 846.256492,30.3275744 847.582884,31.6539672 C848.909277,32.9803599 849.640071,34.7448029 849.640071,36.6204883 C849.640071,38.4961737 848.909277,40.2606167 847.582884,41.5870094 C846.256492,42.9134022 844.492049,43.6441956 842.616363,43.6441956 C840.740146,43.6441956 838.976235,42.9134022 837.649842,41.5870094 M849.247795,42.1229956 C852.058662,38.7399489 851.882483,33.6951855 848.711809,30.525043 C847.084156,28.8963264 844.918921,28 842.616363,28 C840.313273,28 838.14857,28.8963264 836.520918,30.525043 C833.159694,33.8857347 833.159694,39.3552419 836.520918,42.7159336 C838.14857,44.3446502 840.313273,45.2409766 842.616363,45.2409766 C844.650662,45.2409766 846.575848,44.5389252 848.119935,43.2529843 L852.637014,47.7700635 C852.792967,47.9260158 852.997355,48.0042581 853.201743,48.0042581 C853.406131,48.0042581 853.610519,47.9260158 853.766471,47.7700635 C854.077843,47.458159 854.077843,46.9530439 853.766471,46.6411394 L849.247795,42.1229956 Z" id="Fill-1" stroke="#222221" fill="#222221"></path>
                </g>
            </g>
        </g>
    </g>
</svg>