<?xml version="1.0" encoding="UTF-8" standalone="no"?>
<svg width="14px" height="16px" viewBox="0 0 14 16" version="1.1" xmlns="http://www.w3.org/2000/svg" xmlns:xlink="http://www.w3.org/1999/xlink">
    <!-- Generator: sketchtool 3.8.3 (29802) - http://www.bohemiancoding.com/sketch -->
    <title>C5D757F6-8882-4232-B26D-8BC049EA7140</title>
    <desc>Created with sketchtool.</desc>
    <defs></defs>
    <g id="Page-1" stroke="none" stroke-width="1" fill="none" fill-rule="evenodd">
        <g id="CT1301-Commerce_Masthead-XS" transform="translate(-179.000000, -20.000000)">
            <g id="global-nav">
                <g id="SECURE-MSG" transform="translate(172.000000, 17.000000)">
                    <g id="Secure-icon" transform="translate(0.000000, 3.000000)">
                        <g id="Group-5">
                            <path d="M18,6 L17,6 L17,3.42857143 C17,1.6878139 16.0268555,0.897391524 14,0.857142857 C12.0596924,0.897391524 11.0845115,2.69137222 11,3.42857143 L11,6 L10,6 L10,3.42710658 C10,2.30210658 11,-3.7468377e-09 14,1.33078072e-15 C17,3.74684036e-09 17.9786639,1.71773856 18,3.42857143 C17.9786641,3.4552337 18,6 18,6 Z" id="Fill-3" fill="#767676"></path>
                            <rect id="Rectangle-8" fill="#666666" x="7" y="7" width="1" height="8"></rect>
                            <rect id="Rectangle-9" fill="#666666" x="8" y="6" width="12" height="1"></rect>
                            <rect id="Rectangle-10" fill="#666666" x="20" y="7" width="1" height="8"></rect>
                            <rect id="Rectangle-11" fill="#666666" x="8" y="15" width="12" height="1"></rect>
                            <g id="KEYHOLE" transform="translate(12.000000, 9.000000)" fill="#666666">
                                <circle id="Oval-1" cx="2" cy="1" r="1"></circle>
                                <rect id="Rectangle-11" x="1" y="2" width="2" height="2"></rect>
                                <rect id="Rectangle-12" x="0" y="3" width="1" height="1"></rect>
                                <rect id="Rectangle-13" x="3" y="3" width="1" height="1"></rect>
                            </g>
                        </g>
                    </g>
                </g>
            </g>
        </g>
    </g>
</svg>