<?xml version="1.0" encoding="UTF-8" standalone="no"?>
<svg width="22px" height="22px" viewBox="0 0 22 22" version="1.1" xmlns="http://www.w3.org/2000/svg" xmlns:xlink="http://www.w3.org/1999/xlink">
    <!-- Generator: sketchtool 3.8.3 (29802) - http://www.bohemiancoding.com/sketch -->
    <title>741ACFE6-D0F0-45B5-9565-94E3A3BA2FD9</title>
    <desc>Created with sketchtool.</desc>
    <defs>
        <rect id="path-1" x="0" y="0" width="472" height="77"></rect>
        <mask id="mask-2" maskContentUnits="userSpaceOnUse" maskUnits="objectBoundingBox" x="0" y="0" width="472" height="77" fill="white">
            <use xlink:href="#path-1"></use>
        </mask>
        <rect id="path-3" x="0" y="0" width="50" height="50" rx="4"></rect>
        <mask id="mask-4" maskContentUnits="userSpaceOnUse" maskUnits="objectBoundingBox" x="0" y="0" width="50" height="50" fill="white">
            <use xlink:href="#path-3"></use>
        </mask>
    </defs>
    <g id="Page-1" stroke="none" stroke-width="1" fill="none" fill-rule="evenodd">
        <g id="CT3000-Search-Input-Active-L-OPEN" transform="translate(-1016.000000, -27.000000)">
            <rect id="page-level" fill="#EBEBEB" x="0" y="0" width="1200" height="284"></rect>
            <g id="Global-navigation" transform="translate(-1.000000, 0.000000)">
                <g id="Top">
                    <rect id="top-bg" fill="#FFFFFF" x="1" y="0" width="1200" height="78"></rect>
                    <path d="M1013.64984,41.5870094 C1012.32345,40.2606167 1011.59266,38.4961737 1011.59266,36.6204883 C1011.59266,34.7448029 1012.32345,32.9803599 1013.64984,31.6539672 C1014.97623,30.3275744 1016.74015,29.596781 1018.61636,29.596781 C1020.49205,29.596781 1022.25649,30.3275744 1023.58288,31.6539672 C1024.90928,32.9803599 1025.64007,34.7448029 1025.64007,36.6204883 C1025.64007,38.4961737 1024.90928,40.2606167 1023.58288,41.5870094 C1022.25649,42.9134022 1020.49205,43.6441956 1018.61636,43.6441956 C1016.74015,43.6441956 1014.97623,42.9134022 1013.64984,41.5870094 M1025.24779,42.1229956 C1028.05866,38.7399489 1027.88248,33.6951855 1024.71181,30.525043 C1023.08416,28.8963264 1020.91892,28 1018.61636,28 C1016.31327,28 1014.14857,28.8963264 1012.52092,30.525043 C1009.15969,33.8857347 1009.15969,39.3552419 1012.52092,42.7159336 C1014.14857,44.3446502 1016.31327,45.2409766 1018.61636,45.2409766 C1020.65066,45.2409766 1022.57585,44.5389252 1024.11994,43.2529843 L1028.63701,47.7700635 C1028.79297,47.9260158 1028.99735,48.0042581 1029.20174,48.0042581 C1029.40613,48.0042581 1029.61052,47.9260158 1029.76647,47.7700635 C1030.07784,47.458159 1030.07784,46.9530439 1029.76647,46.6411394 L1025.24779,42.1229956 Z" id="Fill-1" stroke="#222221" fill="#222221"></path>
                </g>
                <g id="SEARCH" transform="translate(598.000000, 0.000000)">
                    <use id="top-bg" stroke="#222221" mask="url(#mask-2)" stroke-width="2" fill="#FFFFFF" xlink:href="#path-1"></use>
                    <g id="CTA" transform="translate(405.000000, 13.000000)" stroke="#DA291C">
                        <use id="BG" mask="url(#mask-4)" stroke-width="2" fill="#FFFFFF" xlink:href="#path-3"></use>
                        <path d="M18.6498421,28.5870094 C17.3234494,27.2606167 16.592656,25.4961737 16.592656,23.6204883 C16.592656,21.7448029 17.3234494,19.9803599 18.6498421,18.6539672 C19.9762349,17.3275744 21.7401456,16.596781 23.6163633,16.596781 C25.4920487,16.596781 27.2564917,17.3275744 28.5828844,18.6539672 C29.9092772,19.9803599 30.6400706,21.7448029 30.6400706,23.6204883 C30.6400706,25.4961737 29.9092772,27.2606167 28.5828844,28.5870094 C27.2564917,29.9134022 25.4920487,30.6441956 23.6163633,30.6441956 C21.7401456,30.6441956 19.9762349,29.9134022 18.6498421,28.5870094 M30.2477947,29.1229956 C33.0586615,25.7399489 32.8824834,20.6951855 29.7118086,17.525043 C28.0841565,15.8963264 25.9189215,15 23.6163633,15 C21.3132728,15 19.1485701,15.8963264 17.520918,17.525043 C14.159694,20.8857347 14.159694,26.3552419 17.520918,29.7159336 C19.1485701,31.3446502 21.3132728,32.2409766 23.6163633,32.2409766 C25.6506623,32.2409766 27.5758479,31.5389252 29.1199351,30.2529843 L33.6370144,34.7700635 C33.7929666,34.9260158 33.9973546,35.0042581 34.2017426,35.0042581 C34.4061305,35.0042581 34.6105185,34.9260158 34.7664708,34.7700635 C35.0778431,34.458159 35.0778431,33.9530439 34.7664708,33.6411394 L30.2477947,29.1229956 Z" id="Fill-1" fill="#DA291C"></path>
                    </g>
                </g>
            </g>
        </g>
    </g>
</svg>