<?xml version="1.0" encoding="UTF-8" standalone="no"?>
<svg width="22px" height="22px" viewBox="0 0 22 22" version="1.1" xmlns="http://www.w3.org/2000/svg" xmlns:xlink="http://www.w3.org/1999/xlink">
    <!-- Generator: sketchtool 3.8.3 (29802) - http://www.bohemiancoding.com/sketch -->
    <title>83E09D2B-0D48-4963-96DB-B0E13CEFE5D6</title>
    <desc>Created with sketchtool.</desc>
    <defs></defs>
    <g id="Page-1" stroke="none" stroke-width="1" fill="none" fill-rule="evenodd">
        <g id="CTAs" transform="translate(-255.000000, -3468.000000)">
            <g id="SEARCH" transform="translate(89.000000, 3352.000000)">
                <g id="CTA-Copy" transform="translate(152.000000, 102.000000)">
                    <rect id="BG" fill="#9A3324" x="0" y="0" width="50" height="50" rx="4"></rect>
                    <path d="M18.6498421,28.5870094 C17.3234494,27.2606167 16.592656,25.4961737 16.592656,23.6204883 C16.592656,21.7448029 17.3234494,19.9803599 18.6498421,18.6539672 C19.9762349,17.3275744 21.7401456,16.596781 23.6163633,16.596781 C25.4920487,16.596781 27.2564917,17.3275744 28.5828844,18.6539672 C29.9092772,19.9803599 30.6400706,21.7448029 30.6400706,23.6204883 C30.6400706,25.4961737 29.9092772,27.2606167 28.5828844,28.5870094 C27.2564917,29.9134022 25.4920487,30.6441956 23.6163633,30.6441956 C21.7401456,30.6441956 19.9762349,29.9134022 18.6498421,28.5870094 M30.2477947,29.1229956 C33.0586615,25.7399489 32.8824834,20.6951855 29.7118086,17.525043 C28.0841565,15.8963264 25.9189215,15 23.6163633,15 C21.3132728,15 19.1485701,15.8963264 17.520918,17.525043 C14.159694,20.8857347 14.159694,26.3552419 17.520918,29.7159336 C19.1485701,31.3446502 21.3132728,32.2409766 23.6163633,32.2409766 C25.6506623,32.2409766 27.5758479,31.5389252 29.1199351,30.2529843 L33.6370144,34.7700635 C33.7929666,34.9260158 33.9973546,35.0042581 34.2017426,35.0042581 C34.4061305,35.0042581 34.6105185,34.9260158 34.7664708,34.7700635 C35.0778431,34.458159 35.0778431,33.9530439 34.7664708,33.6411394 L30.2477947,29.1229956 Z" id="Fill-1" stroke="#FFFFFF" fill="#FFFFFF"></path>
                </g>
            </g>
        </g>
    </g>
</svg>