<?xml version="1.0" encoding="UTF-8" standalone="no"?>
<svg width="16px" height="16px" viewBox="0 0 16 16" version="1.1" xmlns="http://www.w3.org/2000/svg" xmlns:xlink="http://www.w3.org/1999/xlink">
    <!-- Generator: sketchtool 39.1 (31720) - http://www.bohemiancoding.com/sketch -->
    <title>A803379C-0152-45D9-9723-BEED7FB41E9E</title>
    <desc>Created with sketchtool.</desc>
    <defs></defs>
    <g id="Page-1" stroke="none" stroke-width="1" fill="none" fill-rule="evenodd">
        <g id="PT0010-Header-Standard-320-Rollover" transform="translate(-282.000000, -21.000000)" fill="#9A3324">
            <g id="global-nav" transform="translate(0.000000, -1.000000)">
                <g id="top">
                    <g id="Group" transform="translate(275.000000, 15.000000)">
                        <path d="M16.1721955,13.8278045 L16.1721955,6.17219552 C16.1721955,5.52514359 15.6470519,5 15,5 C14.3517759,5 13.8278045,5.52514359 13.8278045,6.17219552 L13.8278045,13.8278045 L6.17102333,13.8278045 C5.5239714,13.8278045 5,14.3529481 5,15 C5,15.6470519 5.5239714,16.1721955 6.17102333,16.1721955 L13.8278045,16.1721955 L13.8278045,23.8278045 C13.8278045,24.4748564 14.3517759,25 15,25 C15.6470519,25 16.1721955,24.4748564 16.1721955,23.8278045 L16.1721955,16.1721955 L23.8278045,16.1721955 C24.4760286,16.1721955 25,15.6470519 25,15 C25,14.3529481 24.4760286,13.8278045 23.8278045,13.8278045 L16.1721955,13.8278045 Z" id="close" transform="translate(15.000000, 15.000000) rotate(-315.000000) translate(-15.000000, -15.000000) "></path>
                    </g>
                </g>
            </g>
        </g>
    </g>
</svg>